<svg xmlns="http://www.w3.org/2000/svg" width="1024" height="1024" viewBox="0 0 1024 1024">
  <defs>
    <linearGradient id="bg" x1="0" y1="0" x2="0" y2="1">
      <stop offset="0" stop-color="#0f172a"/>
      <stop offset="1" stop-color="#0284c7"/>
    </linearGradient>
  </defs>

  <rect x="32" y="32" width="960" height="960" rx="220" fill="url(#bg)"/>

  <!-- Alarm bells -->
  <path d="M272 300 A90 90 0 0 1 452 300 L452 326 L272 326 Z" fill="#f8fafc"/>
  <path d="M572 300 A90 90 0 0 1 752 300 L752 326 L572 326 Z" fill="#f8fafc"/>

  <!-- Clock body -->
  <circle cx="512" cy="548" r="258" fill="#f8fafc"/>
  <circle cx="512" cy="548" r="258" fill="none" stroke="#0f172a" stroke-width="16"/>

  <!-- Tick marks -->
  <rect x="504" y="308" width="16" height="40" rx="8" fill="#0f172a"/>
  <rect x="716" y="540" width="40" height="16" rx="8" fill="#0f172a"/>
  <rect x="504" y="748" width="16" height="40" rx="8" fill="#0f172a"/>
  <rect x="268" y="540" width="40" height="16" rx="8" fill="#0f172a"/>

  <!-- Hands -->
  <line x1="512" y1="560" x2="512" y2="386" stroke="#0f172a" stroke-width="32"
        stroke-linecap="round"/>
  <line x1="512" y1="560" x2="616" y2="474" stroke="#0f172a" stroke-width="38"
        stroke-linecap="round"/>
  <circle cx="512" cy="560" r="30" fill="#0284c7"/>
</svg>
